<?xml version="1.0" encoding="utf-8"?>
<!-- Svg Vector Icons : http://www.onlinewebfonts.com/icon -->
<!DOCTYPE svg PUBLIC "-//W3C//DTD SVG 1.1//EN" "http://www.w3.org/Graphics/SVG/1.1/DTD/svg11.dtd">
<svg version="1.1" xmlns="http://www.w3.org/2000/svg" xmlns:xlink="http://www.w3.org/1999/xlink" x="0px" y="0px" viewBox="0 0 1000 1000" enable-background="new 0 0 1000 1000" xml:space="preserve">
<metadata> Svg Vector Icons : http://www.onlinewebfonts.com/icon </metadata>
<g><path d="M846,998.6H154c-79.7,0-144-68.6-144-153.2V502.1c0-84.6,65-153.2,144-153.2H846c79.7,0,144,68.6,144,153.2v343.2C990,929.9,925.6,998.6,846,998.6z M154,410.2c-47.8,0-86.4,41.1-86.4,91.9v343.2c0,50.9,38.6,91.9,86.4,91.9H846c47.8,0,86.4-41.1,86.4-91.9V502.1c0-50.9-38.6-91.9-86.4-91.9H154z"/><path d="M249.6,399.8c-11.6,0-22.7-6.1-27.6-17.2c-16.5-34.9-25.1-72.3-25.1-110.3c0-149.5,129.9-270.9,289.9-270.9c160,0,290.5,121.4,290.5,270.9c0,17.2-13.5,30.6-30.6,30.6c-17.2,0-30.6-13.5-30.6-30.6c0-115.2-103-209.6-229.2-209.6c-126.3,0-228.6,93.8-228.6,209.6c0,28.8,6.7,57,19,84c7.4,15.3,0.6,33.7-14.7,41.1C258.8,398.6,254.5,399.8,249.6,399.8z"/><path d="M478.9,832.5c-6.7,0-12.9-1.8-18.4-6.1L296.2,701.9c-13.5-10.4-15.9-29.4-6.1-42.9c10.4-13.5,29.4-15.9,42.9-6.1l142.8,107.9l228-242.7c11.6-12.3,31.3-12.9,43.5-1.2c12.3,11.6,12.9,31.3,1.2,43.5l-247,262.9C495.4,829.4,486.8,832.5,478.9,832.5z"/></g>
</svg>